<svg width="77" height="40" viewBox="0 0 77 40" fill="none" xmlns="http://www.w3.org/2000/svg">
<path d="M76 1C76 22.005 59.2275 39 38.5 39C17.7725 39 1 22.005 1 1.00253L76 1Z" stroke="#231F20" stroke-miterlimit="10"/>
<path d="M72 1C72 19.2423 57.0162 34 38.5 34C19.9838 34 5 19.2423 5 1.00247L72 1Z" stroke="#231F20" stroke-miterlimit="10"/>
<path d="M68 1C68 17.0299 54.8038 30 38.5 30C22.1962 30 9 17.0299 9 1.00249L68 1Z" stroke="#231F20" stroke-miterlimit="10"/>
<path d="M63 1C63 14.8186 51.82 26 38 26C24.18 26 13 14.8186 13 1.0025L63 1Z" stroke="#231F20" stroke-miterlimit="10"/>
<path d="M59 1C59 12.6062 49.8312 22 38.5 22C27.1688 22 18 12.6062 18 1.00252L59 1Z" stroke="#231F20" stroke-miterlimit="10"/>
<path d="M55 1C55 10.3963 47.6199 18 38.5 18C29.3801 18 22 10.3963 22 1H55Z" stroke="#231F20" stroke-miterlimit="10"/>
<path d="M51 1C51 8.18756 45.4094 14 38.5012 14C31.5931 14 26 8.18756 26 1.0026L51 1Z" stroke="#231F20" stroke-miterlimit="10"/>
<path d="M47 1C47 5.42232 43.1987 9 38.5 9C33.8013 9 30 5.42232 30 1.0024L47 1Z" stroke="#231F20" stroke-miterlimit="10"/>
<path d="M43 1C43 3.21103 40.985 5 38.5 5C36.015 5 34 3.21103 34 1.0024L43 1Z" stroke="#231F20" stroke-miterlimit="10"/>
</svg>
