<svg width="42" height="42" viewBox="0 0 42 42" fill="none" xmlns="http://www.w3.org/2000/svg">
<path d="M41 21C41 9.94584 32.0559 1 21.0014 1C9.94694 1 1.00281 9.94584 1.00281 21C1.00281 32.0542 9.94694 41 21.0014 41C32.0559 41 41 32.0542 41 21Z" stroke="#231F20" stroke-miterlimit="10"/>
<path d="M20.9987 21V41" stroke="#231F20" stroke-miterlimit="10"/>
<path d="M20.9987 21L27.1791 40.0201" stroke="#231F20" stroke-miterlimit="10"/>
<path d="M20.9987 21L32.7538 37.18" stroke="#231F20" stroke-miterlimit="10"/>
<path d="M20.9987 21L37.1784 32.7551" stroke="#231F20" stroke-miterlimit="10"/>
<path d="M20.9987 21L40.0202 27.18" stroke="#231F20" stroke-miterlimit="10"/>
<path d="M20.9987 21H41" stroke="#231F20" stroke-miterlimit="10"/>
<path d="M20.9987 21L40.0202 14.82" stroke="#231F20" stroke-miterlimit="10"/>
<path d="M20.9987 21L37.1784 9.24487" stroke="#231F20" stroke-miterlimit="10"/>
<path d="M20.9987 21L32.7538 4.81998" stroke="#231F20" stroke-miterlimit="10"/>
<path d="M20.9987 21L27.1791 1.97989" stroke="#231F20" stroke-miterlimit="10"/>
<path d="M20.9987 21V1" stroke="#231F20" stroke-miterlimit="10"/>
<path d="M20.9986 21L14.8181 1.97989" stroke="#231F20" stroke-miterlimit="10"/>
<path d="M20.9986 21L9.24341 4.81998" stroke="#231F20" stroke-miterlimit="10"/>
<path d="M20.9987 21L4.81885 9.24487" stroke="#231F20" stroke-miterlimit="10"/>
<path d="M20.9986 21L1.97705 14.82" stroke="#231F20" stroke-miterlimit="10"/>
<path d="M20.9986 21H1" stroke="#231F20" stroke-miterlimit="10"/>
<path d="M20.9986 21L1.97705 27.18" stroke="#231F20" stroke-miterlimit="10"/>
<path d="M20.9987 21L4.81885 32.7551" stroke="#231F20" stroke-miterlimit="10"/>
<path d="M20.9986 21L9.24341 37.18" stroke="#231F20" stroke-miterlimit="10"/>
<path d="M20.9986 21L14.8181 40.0201" stroke="#231F20" stroke-miterlimit="10"/>
</svg>
